<?xml version="1.0" encoding="UTF-8"?>
<svg version="1.1" xmlns="http://www.w3.org/2000/svg" width="512" height="512">
<path d="M0 0 C15.07317235 11.1464432 25.5776209 27.43667001 28.70263672 46.03271484 C31.30783103 67.67410965 26.39303911 86.49110863 13.46044922 104.04443359 C5.64749247 113.23344926 -4.71834212 120.20483883 -15.85205078 124.73193359 C-16.51205078 124.73193359 -17.17205078 124.73193359 -17.85205078 124.73193359 C-17.85205078 128.69193359 -17.85205078 132.65193359 -17.85205078 136.73193359 C-16.53205078 137.06193359 -15.21205078 137.39193359 -13.85205078 137.73193359 C-12.85205078 138.73193359 -12.85205078 138.73193359 -12.73852539 141.59936523 C-12.74376221 142.85096436 -12.74899902 144.10256348 -12.75439453 145.39208984 C-12.75651695 146.38878944 -12.75651695 146.38878944 -12.75868225 147.40562439 C-12.7642956 149.53527258 -12.77685024 151.66481699 -12.78955078 153.79443359 C-12.79456407 155.23518729 -12.79912727 156.67594262 -12.80322266 158.11669922 C-12.81426933 161.65514461 -12.83154286 165.19352898 -12.85205078 168.73193359 C-12.11156494 168.71098633 -11.3710791 168.69003906 -10.6081543 168.66845703 C-7.21042796 168.5846346 -3.81292007 168.53306435 -0.41455078 168.48193359 C0.75011719 168.44841797 1.91478516 168.41490234 3.11474609 168.38037109 C11.55073394 168.28531771 17.87414313 169.25946615 24.52294922 174.66162109 C25.05919922 175.30357422 25.59544922 175.94552734 26.14794922 176.60693359 C26.70482422 177.24373047 27.26169922 177.88052734 27.83544922 178.53662109 C29.14794922 180.73193359 29.14794922 180.73193359 30.14794922 186.73193359 C35.09794922 186.73193359 40.04794922 186.73193359 45.14794922 186.73193359 C45.53982422 185.35005859 45.93169922 183.96818359 46.33544922 182.54443359 C48.34006668 176.62338758 51.52199016 173.49751751 56.89794922 170.41943359 C62.36551573 167.92114478 67.05087405 167.72885104 72.76513672 169.57958984 C78.87199814 172.25247429 82.61187722 175.5038126 85.14794922 181.73193359 C85.49751581 183.39527123 85.83272559 185.06174709 86.14794922 186.73193359 C86.69537277 186.72305115 87.24279633 186.7141687 87.80680847 186.70501709 C93.5668175 186.61569093 99.32662602 186.55585073 105.0871582 186.51220703 C107.22949227 186.4922409 109.3717729 186.46505821 111.51391602 186.43017578 C133.62524104 186.07944798 150.62721868 189.83889039 167.14794922 205.73193359 C182.27697952 222.92877253 184.31633733 241.76880458 184.26147461 263.64648438 C184.26119206 265.2341461 184.26135179 266.82180796 184.26191711 268.4094696 C184.26220246 272.69181033 184.25634842 276.97412268 184.24934316 281.25645685 C184.24306566 285.74208588 184.24250235 290.22771565 184.24131775 294.71334839 C184.23821735 303.19514576 184.23002145 311.67693014 184.21996826 320.1587218 C184.20876691 329.82019495 184.20328656 339.48166873 184.19827282 349.14314675 C184.18783769 369.00608293 184.17026338 388.86900744 184.14794922 408.73193359 C184.76876877 408.72250732 185.38958832 408.71308105 186.02922058 408.70336914 C186.84208023 408.6960376 187.65493988 408.68870605 188.49243164 408.68115234 C189.29887619 408.67172607 190.10532074 408.6622998 190.936203 408.65258789 C193.58843994 408.74773606 195.23744575 409.28483926 197.46044922 410.73193359 C198.07533203 411.10318359 198.69021484 411.47443359 199.32373047 411.85693359 C204.73271901 417.41649355 205.65825014 423.36946188 205.69482422 430.93115234 C205.67935547 432.02041016 205.66388672 433.10966797 205.64794922 434.23193359 C205.66341797 435.32119141 205.67888672 436.41044922 205.69482422 437.53271484 C205.66165639 444.39016273 204.8305737 448.91122859 201.14794922 454.73193359 C196.06836301 459.44869222 192.67047906 459.88648214 185.93798828 459.90893555 C185.08901978 459.91550674 184.24005127 459.92207794 183.36535645 459.92884827 C180.54809485 459.9486027 177.73088665 459.96024925 174.91357422 459.97021484 C173.95203178 459.97429037 172.99048935 459.9783659 171.99980927 459.98256493 C166.90954299 460.00343583 161.81930374 460.01773255 156.72900391 460.02709961 C151.47195773 460.03816003 146.21533531 460.07255283 140.95843887 460.11227131 C136.91606868 460.13842389 132.87379959 460.14679029 128.83135223 460.15038109 C126.89368583 460.15525136 124.95602406 460.16687787 123.01844025 460.18541908 C120.30378226 460.20977931 117.59022222 460.20885115 114.87548828 460.2019043 C113.67826141 460.22111938 113.67826141 460.22111938 112.45684814 460.24072266 C107.22641251 460.19202457 104.32144921 459.14721459 100.14794922 455.73193359 C94.17433758 449.27397507 94.90796674 442.90363506 94.83544922 434.48193359 C94.80644531 433.37462891 94.77744141 432.26732422 94.74755859 431.12646484 C94.69598557 424.45370962 95.12484684 419.22510027 99.14794922 413.73193359 C101.04248047 411.85693359 101.04248047 411.85693359 102.96044922 410.73193359 C103.58564453 410.34005859 104.21083984 409.94818359 104.85498047 409.54443359 C107.97965183 408.43722466 110.85627234 408.68213588 114.14794922 408.73193359 C114.11072951 391.41579731 114.05079101 374.09990721 113.96404648 356.78395176 C113.92429213 348.74325299 113.8918814 340.70265158 113.87695312 332.66186523 C113.86391784 325.65084704 113.83690557 318.64004339 113.79333615 311.62914604 C113.77076321 307.9192868 113.75503601 304.20969177 113.75606537 300.49975777 C113.75695394 296.35101792 113.72662854 292.20305391 113.69384766 288.05444336 C113.69887802 286.83380188 113.70390839 285.6131604 113.70909119 284.35552979 C113.61022363 276.2553675 112.46881932 269.75865666 107.21826172 263.39208984 C100.47229757 257.85172973 94.72254741 256.45601077 86.14794922 255.73193359 C86.01839844 256.60205078 86.01839844 256.60205078 85.88623047 257.48974609 C84.62560866 264.49834076 82.5333048 268.33741379 76.58544922 272.54443359 C70.38787713 275.56376359 63.90353143 275.60453463 57.39794922 273.54443359 C51.15056388 270.06031485 47.62634558 265.35022108 45.14794922 258.73193359 C45.14794922 257.74193359 45.14794922 256.75193359 45.14794922 255.73193359 C40.52794922 256.06193359 35.90794922 256.39193359 31.14794922 256.73193359 C30.40544922 258.74287109 30.40544922 258.74287109 29.64794922 260.79443359 C26.96283813 266.8311727 22.77265934 271.16331001 16.67549133 273.8019104 C11.9115788 275.057898 7.41886157 275.02694035 2.51196289 275.02246094 C1.4526506 275.02917816 0.39333832 275.03589539 -0.69807434 275.04281616 C-4.1934582 275.06178464 -7.68864993 275.06571984 -11.18408203 275.06787109 C-13.62017393 275.0742999 -16.05626506 275.08102832 -18.49235535 275.08804321 C-23.59737945 275.10001317 -28.7023359 275.10372433 -33.80737305 275.10253906 C-40.33745629 275.10233591 -46.86710413 275.12963566 -53.39708424 275.16408348 C-58.42866495 275.18635985 -63.46014101 275.19037636 -68.49176598 275.18931961 C-70.89863269 275.19167454 -73.30550233 275.20049188 -75.71232033 275.21598434 C-79.08448084 275.23565797 -82.45570411 275.22980001 -85.82788086 275.21777344 C-86.81467834 275.22901245 -87.80147583 275.24025146 -88.81817627 275.25183105 C-95.92605677 275.18766389 -102.36450479 273.95829103 -107.73428059 268.99066734 C-111.37653579 265.0182925 -113.85205078 261.25495075 -113.85205078 255.73193359 C-118.80205078 255.73193359 -123.75205078 255.73193359 -128.85205078 255.73193359 C-129.18205078 258.04193359 -129.51205078 260.35193359 -129.85205078 262.73193359 C-132.67122772 267.86686302 -135.97792197 271.08957427 -141.03955078 273.98193359 C-147.69607975 275.75700799 -154.00082612 275.52722267 -160.03173828 272.06005859 C-165.64788696 267.96243939 -168.47374823 263.48561609 -169.85205078 256.73193359 C-177.37199174 256.12548674 -182.62120863 257.35236033 -188.85205078 261.73193359 C-196.00721381 268.78382623 -197.06792147 276.30261495 -197.16435242 285.97976685 C-197.1665126 287.1888974 -197.16867279 288.39802795 -197.17089844 289.64379883 C-197.18094406 290.93229233 -197.19098969 292.22078583 -197.20133972 293.54832458 C-197.2285324 297.06431437 -197.24375708 300.58026433 -197.25676775 304.09633136 C-197.27244551 307.77724421 -197.29922082 311.4580763 -197.32479858 315.13893127 C-197.37150439 322.10144683 -197.40828805 329.06397772 -197.44147146 336.02656943 C-197.47975093 343.95649789 -197.52914575 351.88634507 -197.57945561 359.81620491 C-197.68265346 376.12138934 -197.77195318 392.42661896 -197.85205078 408.73193359 C-197.23123123 408.72250732 -196.61041168 408.71308105 -195.97077942 408.70336914 C-195.15791977 408.6960376 -194.34506012 408.68870605 -193.50756836 408.68115234 C-192.70112381 408.67172607 -191.89467926 408.6622998 -191.063797 408.65258789 C-188.41156006 408.74773606 -186.76255425 409.28483926 -184.53955078 410.73193359 C-183.92466797 411.10318359 -183.30978516 411.47443359 -182.67626953 411.85693359 C-177.23755941 417.4470425 -176.35857973 423.37953667 -176.35400391 430.97998047 C-176.37398438 432.07375 -176.39396484 433.16751953 -176.41455078 434.29443359 C-176.40746094 435.39207031 -176.40037109 436.48970703 -176.39306641 437.62060547 C-176.44651155 444.44102847 -176.69095971 450.14453761 -181.38720703 455.47412109 C-186.63112217 459.36346992 -189.64027152 459.88751852 -196.06201172 459.90893555 C-196.91098022 459.91550674 -197.75994873 459.92207794 -198.63464355 459.92884827 C-201.45190515 459.9486027 -204.26911335 459.96024925 -207.08642578 459.97021484 C-208.04796822 459.97429037 -209.00951065 459.9783659 -210.00019073 459.98256493 C-215.09045701 460.00343583 -220.18069626 460.01773255 -225.27099609 460.02709961 C-230.52804227 460.03816003 -235.78466469 460.07255283 -241.04156113 460.11227131 C-245.08393132 460.13842389 -249.12620041 460.14679029 -253.16864777 460.15038109 C-255.10631417 460.15525136 -257.04397594 460.16687787 -258.98155975 460.18541908 C-261.69621774 460.20977931 -264.40977778 460.20885115 -267.12451172 460.2019043 C-268.32173859 460.22111938 -268.32173859 460.22111938 -269.54315186 460.24072266 C-274.76413231 460.1921126 -277.70886827 459.17844789 -281.85205078 455.73193359 C-287.18080639 448.67493292 -287.09153849 443.08687147 -287.16455078 434.54443359 C-287.19355469 433.43261719 -287.22255859 432.32080078 -287.25244141 431.17529297 C-287.30396341 424.48139568 -286.880284 419.24588181 -282.85205078 413.73193359 C-280.99267578 411.85693359 -280.99267578 411.85693359 -279.10205078 410.73193359 C-278.48845703 410.34005859 -277.87486328 409.94818359 -277.24267578 409.54443359 C-273.74869437 408.35693664 -270.53774271 408.68332695 -266.85205078 408.73193359 C-266.85481616 407.87201435 -266.85758154 407.01209511 -266.86043072 406.12611771 C-266.92678906 385.16712953 -266.97637923 364.20815954 -267.0074873 343.24908829 C-267.02293218 333.11328602 -267.04397609 322.97755403 -267.07836914 312.84179688 C-267.10834447 304.00371907 -267.12764306 295.16569219 -267.13431627 286.32756495 C-267.13821477 281.65124756 -267.14732691 276.97507579 -267.16924095 272.29880524 C-267.1897348 267.88950629 -267.19585873 263.48041177 -267.19137383 259.07106972 C-267.19219329 257.46031645 -267.19808166 255.84955573 -267.20966721 254.23884392 C-267.33727589 235.5682254 -263.12381976 219.46526207 -249.96899414 205.72167969 C-239.19241883 194.90277112 -224.954054 186.83785276 -209.38061523 186.39135742 C-207.49212088 186.39182249 -205.60357534 186.40816994 -203.71533203 186.43896484 C-202.20715157 186.44533211 -202.20715157 186.44533211 -200.66850281 186.451828 C-197.50023032 186.46843713 -194.33262653 186.50605462 -191.16455078 186.54443359 C-188.99854443 186.55950344 -186.83252797 186.57318778 -184.66650391 186.58544922 C-179.39479666 186.61828199 -174.12347151 186.66829965 -168.85205078 186.73193359 C-168.71557129 185.62495117 -168.5790918 184.51796875 -168.43847656 183.37744141 C-167.57161343 177.98859868 -164.84527519 175.27791687 -160.85205078 171.73193359 C-155.61524373 168.62864053 -150.80716122 167.95058932 -144.85205078 168.73193359 C-138.33700656 170.903615 -133.75317193 173.65933867 -130.53955078 179.79443359 C-129.24203844 182.46638588 -128.85205078 183.68639457 -128.85205078 186.73193359 C-123.90205078 186.73193359 -118.95205078 186.73193359 -113.85205078 186.73193359 C-113.19205078 184.42193359 -112.53205078 182.11193359 -111.85205078 179.73193359 C-108.43913604 173.79010498 -103.32406965 170.60542794 -96.85205078 168.73193359 C-92.31465677 168.27752955 -87.8435575 168.35088304 -83.28955078 168.48193359 C-81.4903418 168.50900391 -81.4903418 168.50900391 -79.65478516 168.53662109 C-76.71969026 168.58339551 -73.78630676 168.64892777 -70.85205078 168.73193359 C-70.86252441 167.86914795 -70.87299805 167.0063623 -70.88378906 166.11743164 C-70.91789061 162.91382839 -70.94295935 159.71031769 -70.96191406 156.5065918 C-70.97196648 155.12049311 -70.98561048 153.7344156 -71.00292969 152.34838867 C-71.0272103 150.35523609 -71.03747109 148.36192827 -71.04736328 146.36865234 C-71.05783691 145.16942139 -71.06831055 143.97019043 -71.07910156 142.73461914 C-70.85205078 139.73193359 -70.85205078 139.73193359 -68.85205078 136.73193359 C-67.86205078 136.40193359 -66.87205078 136.07193359 -65.85205078 135.73193359 C-65.52205078 132.10193359 -65.19205078 128.47193359 -64.85205078 124.73193359 C-66.50205078 124.40193359 -68.15205078 124.07193359 -69.85205078 123.73193359 C-86.5141533 116.61978782 -99.62085472 103.40609714 -107.22705078 86.98193359 C-114.71184063 68.16600357 -114.7265939 48.21121377 -107.16455078 29.41943359 C-99.50550063 12.84050685 -86.1614353 -1.33976225 -68.86376953 -7.83837891 C-45.48540792 -16.03335023 -20.64401117 -14.13458925 0 0 Z " fill="#4F1B58" transform="translate(296.85205078125,32.26806640625)"/>
<path d="M0 0 C6.5175 -0.061875 13.035 -0.12375 19.75 -0.1875 C21.78124023 -0.21481201 23.81248047 -0.24212402 25.90527344 -0.27026367 C43.89803482 -0.41260838 59.25710884 2.64755312 72.7421875 15.50390625 C84.80821403 28.84333696 87.31048233 42.88430954 87.22705078 60.23828125 C87.22648604 61.88476047 87.22680446 63.53124019 87.22793579 65.17771912 C87.22850784 69.62962728 87.21677747 74.08142691 87.20278788 78.53330994 C87.19025588 83.19244837 87.18910807 87.8515895 87.18673706 92.51074219 C87.18052954 101.32553393 87.16412859 110.14027586 87.14403808 118.9550457 C87.1216564 128.9937273 87.11067995 139.03241132 87.10064721 149.07111168 C87.07976171 169.7141084 87.04309457 190.35703687 87 211 C71.82 211 56.64 211 41 211 C40.98541748 206.99311035 40.97083496 202.9862207 40.95581055 198.85791016 C40.90543207 185.60647096 40.83898011 172.35515303 40.76428509 159.10383034 C40.71939689 151.07102397 40.6799663 143.03826125 40.65356445 135.00537109 C40.63052769 128.00059796 40.5970667 120.99596376 40.55129844 113.99130094 C40.52744241 110.2853647 40.50866392 106.5795654 40.50238609 102.87355423 C40.49516696 98.72751671 40.4646663 94.58195327 40.43237305 90.43603516 C40.43380814 89.21898895 40.43524323 88.00194275 40.4367218 86.74801636 C40.30334892 74.60819156 37.49711498 65.50322989 29.51171875 56.28125 C21.41171602 48.40233915 10.80113525 46.98192139 0 46 C0 30.82 0 15.64 0 0 Z " fill="#E6AE31" transform="translate(382,230)"/>
<path d="M0 0 C1.2309137 0.00151062 1.2309137 0.00151062 2.48669434 0.00305176 C5.5367168 0.00826306 8.58671925 0.02222428 11.63671875 0.03515625 C18.46359375 0.05578125 25.29046875 0.07640625 32.32421875 0.09765625 C32.32421875 15.27765625 32.32421875 30.45765625 32.32421875 46.09765625 C24.89921875 47.08765625 24.89921875 47.08765625 17.32421875 48.09765625 C7.49015387 52.12068279 0.08177512 57.40435787 -4.67578125 67.09765625 C-6.24806007 71.23611378 -6.93027551 74.67609786 -6.95425415 79.09616089 C-6.96541763 80.27397629 -6.97658112 81.45179169 -6.98808289 82.66529846 C-6.99024307 83.94347946 -6.99240326 85.22166046 -6.99462891 86.53857422 C-7.00393497 87.90890591 -7.01410464 89.27923197 -7.02507019 90.64955139 C-7.05230798 94.3577436 -7.06750106 98.06589794 -7.08049822 101.77416372 C-7.09615607 105.65394005 -7.1229378 109.53363937 -7.14852905 113.4133606 C-7.19526992 120.75486178 -7.2320367 128.09637752 -7.26520193 135.43795121 C-7.30345651 143.79831749 -7.35285792 152.15860635 -7.40318608 160.51890731 C-7.50643616 177.71177326 -7.59424764 194.90467152 -7.67578125 212.09765625 C-22.85578125 212.09765625 -38.03578125 212.09765625 -53.67578125 212.09765625 C-53.7661773 189.99199872 -53.83981897 167.88649152 -53.88302994 145.78069592 C-53.90362942 135.51592058 -53.93169998 125.25126848 -53.97753906 114.98657227 C-54.01748692 106.03680232 -54.04323305 97.08712166 -54.05213523 88.13726503 C-54.05733653 83.40112743 -54.06950677 78.6652452 -54.09870148 73.92918968 C-54.12599633 69.46486121 -54.13419801 65.00089157 -54.12821198 60.53648758 C-54.12930595 58.90434248 -54.13717571 57.27218448 -54.15260315 55.64011192 C-54.2979154 39.46427811 -50.23092789 26.6991549 -38.86328125 14.78515625 C-27.99663876 4.40580715 -14.79858472 -0.0859085 0 0 Z " fill="#E6AE31" transform="translate(95.67578125,229.90234375)"/>
<path d="M0 0 C11.62575048 9.98009631 19.54289675 23.4775183 21.00390625 38.828125 C22.34546787 57.13528132 18.02050178 72.44571036 6.19140625 86.640625 C-3.80904089 97.2757159 -17.64466854 104.48425479 -32.31640625 105.19921875 C-51.43214733 105.60360279 -65.82321497 101.59870119 -80.18359375 88.265625 C-87.67872416 80.4363168 -93.45131437 70.40683599 -95.99609375 59.828125 C-96.17785156 59.07660156 -96.35960937 58.32507813 -96.546875 57.55078125 C-99.18280472 41.57475502 -95.86029189 26.31265808 -86.99609375 12.828125 C-84.20467308 9.25747383 -81.21938683 6.01076394 -77.99609375 2.828125 C-77.45597656 2.26609375 -76.91585937 1.7040625 -76.359375 1.125 C-55.01195858 -19.30829531 -22.51580291 -16.32175544 0 0 Z " fill="#F2F1F2" transform="translate(292.99609375,44.171875)"/>
<path d="M0 0 C0.90280701 -0.00860046 1.80561401 -0.01720093 2.73577881 -0.02606201 C3.72904175 -0.03032196 4.72230469 -0.03458191 5.7456665 -0.03897095 C7.31172638 -0.05123718 7.31172638 -0.05123718 8.90942383 -0.06375122 C12.37599102 -0.08863135 15.84251718 -0.10512808 19.30914307 -0.11953735 C20.49133675 -0.12486103 21.67353043 -0.13018471 22.89154816 -0.13566971 C29.14890393 -0.16241279 35.40623968 -0.18178393 41.66363525 -0.19619751 C48.13140745 -0.21284714 54.59867029 -0.257625 61.06624985 -0.30856895 C66.03508092 -0.3422037 71.00379055 -0.35377089 75.97272491 -0.35942459 C78.35697573 -0.36614756 80.74121827 -0.38139652 83.12535858 -0.4053154 C86.46275991 -0.43688702 89.79878042 -0.43701505 93.1362915 -0.42959595 C94.12145752 -0.44600128 95.10662354 -0.46240662 96.12164307 -0.47930908 C100.61073812 -0.43845686 103.72178008 -0.31845814 107.29748535 2.56536865 C110.88511731 6.43114942 110.83102815 8.34410907 110.86090088 13.54379272 C110.86834824 14.52704781 110.86834824 14.52704781 110.87594604 15.53016663 C110.89057351 17.70293217 110.89737121 19.87562466 110.90289307 22.0484314 C110.90864482 23.55817161 110.91440255 25.06791181 110.92016602 26.57765198 C110.9306782 29.74605652 110.93651918 32.91443569 110.94000244 36.08285522 C110.94548228 40.13824098 110.96949816 44.19329014 110.9979744 48.24857044 C111.01662193 51.36872834 111.02180753 54.4888056 111.02333832 57.60901451 C111.02636151 59.10371423 111.03437884 60.59841265 111.0475235 62.09305763 C111.06462605 64.18757126 111.06269387 66.28126838 111.05621338 68.37582397 C111.06168182 70.16213982 111.06168182 70.16213982 111.06726074 71.98454285 C110.65642327 75.52771752 109.89331028 77.35900717 107.69976807 80.15390015 C104.77223297 81.95313932 102.56432098 82.4067806 99.15229797 82.42132568 C97.79179573 82.43412064 97.79179573 82.43412064 96.40380859 82.44717407 C95.41616516 82.4462677 94.42852173 82.44536133 93.41094971 82.44442749 C91.84204231 82.45450333 91.84204231 82.45450333 90.24143982 82.46478271 C86.78088646 82.48379448 83.32052667 82.48768838 79.85992432 82.48983765 C77.45623189 82.49626275 75.05254025 82.50299089 72.64884949 82.51000977 C67.60924465 82.52199007 62.56970841 82.52568975 57.53009033 82.52450562 C51.06905604 82.52430225 44.60846074 82.5516198 38.14753056 82.58605003 C33.18301875 82.60827365 28.2186134 82.61234456 23.25405693 82.61128616 C20.87179487 82.61364837 18.48953014 82.62250657 16.10731697 82.6379509 C12.77722418 82.6575208 9.44808878 82.65180786 6.11798096 82.63973999 C5.13236176 82.650979 4.14674255 82.66221802 3.1312561 82.67379761 C-1.10382061 82.63474822 -3.62067095 82.5537056 -7.32637024 80.37353516 C-11.09013609 76.14112796 -11.55483835 73.30692142 -11.60662842 67.6446228 C-11.61495193 67.00018723 -11.62327545 66.35575165 -11.6318512 65.69178772 C-11.65589304 63.56711741 -11.66471586 61.44275444 -11.67132568 59.31796265 C-11.68029637 57.8358959 -11.6894183 56.35383006 -11.69868469 54.87176514 C-11.71516134 51.76656903 -11.72287238 48.66148058 -11.72576904 45.5562439 C-11.73115205 41.58592271 -11.7688326 37.61661935 -11.81451321 33.64658546 C-11.84432129 30.58555445 -11.85149339 27.52476748 -11.85249519 24.46360397 C-11.85669002 23.00040397 -11.8690949 21.53720276 -11.89001274 20.07414627 C-12.05935122 7.20610607 -12.05935122 7.20610607 -8.89031982 3.27255249 C-5.60921787 0.5886612 -4.12937278 0.02924545 0 0 Z " fill="#F3F3F3" transform="translate(205.30023193359375,212.84609985351563)"/>
<path d="M0 0 C15.07317235 11.1464432 25.5776209 27.43667001 28.70263672 46.03271484 C31.30783103 67.67410965 26.39303911 86.49110863 13.46044922 104.04443359 C0.7771592 118.96157117 -16.80196816 126.9639455 -36.04638672 128.95947266 C-54.85391382 130.32308269 -73.25341451 125.15372399 -87.70581055 112.85400391 C-103.43449863 98.66764104 -111.11440697 81.61518453 -113.13330078 60.83740234 C-113.83636532 41.29806718 -106.22002894 23.66488959 -93.57470703 9.11083984 C-69.39240774 -16.6391936 -28.79163452 -19.71312282 0 0 Z M-84.85205078 17.73193359 C-85.48626953 18.33392578 -86.12048828 18.93591797 -86.77392578 19.55615234 C-97.5588581 30.55582889 -101.24786319 45.84378633 -101.15087891 60.77416992 C-100.75278623 75.33029123 -94.25012291 89.16041662 -84.16064453 99.55615234 C-69.98555674 112.91575285 -55.68910323 117.38189912 -36.54345703 117.04052734 C-22.72570665 116.49559561 -9.91597702 110.27266361 0.20654297 100.86865234 C12.38531124 87.46465588 17.73066856 72.63289397 17.38623047 54.59521484 C16.36421922 38.02522927 9.50488646 23.90725123 -2.85205078 12.73193359 C-28.79497043 -6.92763405 -61.67460469 -6.07080331 -84.85205078 17.73193359 Z " fill="#4E1B59" transform="translate(296.85205078125,32.26806640625)"/>
<path d="M0 0 C0.96719971 0.00644531 1.93439941 0.01289062 2.9309082 0.01953125 C15.62521336 0.34254697 25.82724179 4.84936462 35.25 13.5 C45.12774955 24.50056593 49.06787934 34.89134918 49.578125 49.484375 C49.15158495 52.10454961 48.28900641 52.84201663 46.25 54.5 C43.26796819 54.79635615 40.49481349 54.90962782 37.51171875 54.88818359 C36.61877106 54.89344055 35.72582336 54.89869751 34.80581665 54.90411377 C31.84953399 54.91733453 28.89378829 54.90856831 25.9375 54.8984375 C23.88631079 54.90045764 21.83512229 54.90336857 19.78393555 54.90713501 C15.48316618 54.91156118 11.18258361 54.90511782 6.88183594 54.89111328 C1.36336905 54.87402131 -4.15466014 54.88386092 -9.67311096 54.90183067 C-13.90925405 54.91266055 -18.14529302 54.90922581 -22.38143921 54.9014473 C-24.41645357 54.89944309 -26.45147732 54.90191227 -28.48648071 54.90888596 C-31.32848221 54.91648729 -34.1697705 54.9049147 -37.01171875 54.88818359 C-37.85648773 54.89425629 -38.70125671 54.90032898 -39.57162476 54.90658569 C-45.28782649 54.84410135 -45.28782649 54.84410135 -47.46614075 53.22228432 C-49.83334395 50.04670496 -49.14216124 46.24486363 -48.75 42.5 C-46.703637 29.11567984 -40.17748599 18.10139597 -29.75 9.5 C-20.41384117 2.79560878 -11.45557489 -0.08001799 0 0 Z " fill="#4F1B58" transform="translate(254.75,41.5)"/>
<path d="M0 0 C1.13464188 0.00607269 1.13464188 0.00607269 2.29220581 0.01226807 C3.08907806 0.00876343 3.88595032 0.00525879 4.70697021 0.00164795 C7.34875118 -0.00717566 9.99026573 -0.00131805 12.63204956 0.00543213 C14.46286063 0.00408566 16.29367136 0.00214528 18.1244812 -0.00036621 C21.96460366 -0.00331832 25.80463319 0.00098296 29.64474487 0.01031494 C34.5747365 0.02170953 39.50451039 0.01515052 44.43449402 0.00317001 C48.21592865 -0.00404624 51.99731139 -0.00176174 55.77874756 0.0034256 C57.5968834 0.00476275 59.4150239 0.00311211 61.2331543 -0.00153351 C63.77119482 -0.00659491 66.3088794 0.0011059 68.84689331 0.01226807 C69.60332123 0.0082196 70.35974915 0.00417114 71.13909912 0 C76.34102095 0.04252852 76.34102095 0.04252852 78.56954956 2.27105713 C79.02437723 6.06452203 78.89358306 9.89096842 78.88204956 13.70855713 C78.89816284 14.77138916 78.91427612 15.83422119 78.93087769 16.92926025 C78.93152222 17.94826416 78.93216675 18.96726807 78.93283081 20.01715088 C78.93581177 20.95228516 78.93879272 21.88741943 78.94186401 22.85089111 C78.56954956 25.27105713 78.56954956 25.27105713 77.52357483 26.89805603 C74.53327863 28.99919568 71.45682401 28.68845352 67.93283081 28.65924072 C67.15692596 28.66449768 66.38102112 28.66975464 65.581604 28.6751709 C63.01488154 28.68838297 60.44877842 28.67962879 57.88204956 28.66949463 C56.09990317 28.67151502 54.31775758 28.67442617 52.53561401 28.67819214 C48.79977551 28.68261712 45.06415213 28.67617889 41.32833862 28.66217041 C36.53625872 28.64507837 31.74468286 28.65491863 26.95262146 28.6728878 C23.272351 28.68372097 19.59220031 28.68028146 15.91192627 28.67250443 C14.14485617 28.67050112 12.37777524 28.67296625 10.61071777 28.67994308 C8.14227432 28.68754998 5.67465061 28.67596466 3.20626831 28.65924072 C2.10742813 28.66834976 2.10742813 28.66834976 0.98638916 28.67764282 C-1.94690141 28.64076762 -3.94270256 28.61377448 -6.38447571 26.89805603 C-7.88493826 24.56410776 -7.80252553 22.77580124 -7.79373169 20.01715088 C-7.79276489 18.48864502 -7.79276489 18.48864502 -7.79177856 16.92926025 C-7.77566528 15.86642822 -7.759552 14.80359619 -7.74295044 13.70855713 C-7.7461731 12.64185791 -7.74939575 11.57515869 -7.75271606 10.47613525 C-7.68017217 0.06278956 -7.68017217 0.06278956 0 0 Z " fill="#F1F1F2" transform="translate(411.4304504394531,452.72894287109375)"/>
<path d="M0 0 C1.13464188 0.00607269 1.13464188 0.00607269 2.29220581 0.01226807 C3.08907806 0.00876343 3.88595032 0.00525879 4.70697021 0.00164795 C7.34875118 -0.00717566 9.99026573 -0.00131805 12.63204956 0.00543213 C14.46286063 0.00408566 16.29367136 0.00214528 18.1244812 -0.00036621 C21.96460366 -0.00331832 25.80463319 0.00098296 29.64474487 0.01031494 C34.5747365 0.02170953 39.50451039 0.01515052 44.43449402 0.00317001 C48.21592865 -0.00404624 51.99731139 -0.00176174 55.77874756 0.0034256 C57.5968834 0.00476275 59.4150239 0.00311211 61.2331543 -0.00153351 C63.77119482 -0.00659491 66.3088794 0.0011059 68.84689331 0.01226807 C69.60332123 0.0082196 70.35974915 0.00417114 71.13909912 0 C76.34102095 0.04252852 76.34102095 0.04252852 78.56954956 2.27105713 C79.02437723 6.06452203 78.89358306 9.89096842 78.88204956 13.70855713 C78.89816284 14.77138916 78.91427612 15.83422119 78.93087769 16.92926025 C78.93152222 17.94826416 78.93216675 18.96726807 78.93283081 20.01715088 C78.93581177 20.95228516 78.93879272 21.88741943 78.94186401 22.85089111 C78.56954956 25.27105713 78.56954956 25.27105713 77.52357483 26.89805603 C74.53327863 28.99919568 71.45682401 28.68845352 67.93283081 28.65924072 C67.15692596 28.66449768 66.38102112 28.66975464 65.581604 28.6751709 C63.01488154 28.68838297 60.44877842 28.67962879 57.88204956 28.66949463 C56.09990317 28.67151502 54.31775758 28.67442617 52.53561401 28.67819214 C48.79977551 28.68261712 45.06415213 28.67617889 41.32833862 28.66217041 C36.53625872 28.64507837 31.74468286 28.65491863 26.95262146 28.6728878 C23.272351 28.68372097 19.59220031 28.68028146 15.91192627 28.67250443 C14.14485617 28.67050112 12.37777524 28.67296625 10.61071777 28.67994308 C8.14227432 28.68754998 5.67465061 28.67596466 3.20626831 28.65924072 C2.10742813 28.66834976 2.10742813 28.66834976 0.98638916 28.67764282 C-1.94690141 28.64076762 -3.94270256 28.61377448 -6.38447571 26.89805603 C-7.88493826 24.56410776 -7.80252553 22.77580124 -7.79373169 20.01715088 C-7.79276489 18.48864502 -7.79276489 18.48864502 -7.79177856 16.92926025 C-7.77566528 15.86642822 -7.759552 14.80359619 -7.74295044 13.70855713 C-7.7461731 12.64185791 -7.74939575 11.57515869 -7.75271606 10.47613525 C-7.68017217 0.06278956 -7.68017217 0.06278956 0 0 Z " fill="#F1F1F2" transform="translate(29.430450439453125,452.72894287109375)"/>
<path d="M0 0 C0.81339844 0.2165625 1.62679687 0.433125 2.46484375 0.65625 C15.74471982 3.88285656 28.19626816 4.28304567 41.4609375 0.65625 C44 0 44 0 47 0 C47 3.96 47 7.92 47 12 C45.35 12.66 43.7 13.32 42 14 C41.67 24.23 41.34 34.46 41 45 C29.45 45 17.9 45 6 45 C5.8125 30.1875 5.8125 30.1875 5.79223633 25.52416992 C5.75005981 23.70816284 5.75005981 23.70816284 5.70703125 21.85546875 C5.68346558 19.99378052 5.68346558 19.99378052 5.65942383 18.09448242 C5.32677706 14.8019406 5.32677706 14.8019406 2.48632812 13.25390625 C1.66583984 12.84011719 0.84535156 12.42632812 0 12 C-0.48828125 9.08203125 -0.48828125 9.08203125 -0.3125 5.8125 C-0.26738281 4.72582031 -0.22226563 3.63914063 -0.17578125 2.51953125 C-0.11777344 1.68808594 -0.05976563 0.85664063 0 0 Z " fill="#B3A3B1" transform="translate(232,157)"/>
<path d="M0 0 C9.11785367 5.54642001 16.86976098 12.84466519 20.1640625 23.31640625 C20.1640625 25.29640625 20.1640625 27.27640625 20.1640625 29.31640625 C13.2340625 29.31640625 6.3040625 29.31640625 -0.8359375 29.31640625 C3.1640625 24.31640625 3.1640625 24.31640625 5.9140625 21.81640625 C8.3775778 19.53237412 8.3775778 19.53237412 8.6015625 16.62890625 C8.35379747 14.13058334 8.35379747 14.13058334 6.1640625 12.31640625 C3.27562737 11.94325913 1.742111 11.93611711 -0.71704102 13.55395508 C-1.29381592 14.12138428 -1.87059082 14.68881348 -2.46484375 15.2734375 C-3.10744141 15.89154297 -3.75003906 16.50964844 -4.41210938 17.14648438 C-5.06759766 17.80068359 -5.72308594 18.45488281 -6.3984375 19.12890625 C-7.7107073 20.40782413 -9.02446451 21.68521793 -10.33984375 22.9609375 C-11.20331421 23.81715698 -11.20331421 23.81715698 -12.08422852 24.69067383 C-12.66229248 25.22716553 -13.24035645 25.76365723 -13.8359375 26.31640625 C-14.39756592 26.87457031 -14.95919434 27.43273437 -15.5378418 28.0078125 C-18.94666211 29.9488809 -22.28906505 29.68635899 -26.1015625 29.609375 C-26.89496033 29.60513016 -27.68835815 29.60088531 -28.50579834 29.59651184 C-31.0328607 29.57975665 -33.55911733 29.54211131 -36.0859375 29.50390625 C-37.80207179 29.48885528 -39.51821862 29.47516759 -41.234375 29.46289062 C-45.43520496 29.4298636 -49.63543475 29.3781039 -53.8359375 29.31640625 C-51.98984035 18.43034582 -47.68213362 10.26205242 -38.8359375 3.31640625 C-27.45949573 -3.37765857 -12.34481723 -6.08756451 0 0 Z " fill="#E4AC31" transform="translate(271.8359375,55.68359375)"/>
<path d="M0 0 C4.00538252 0.64372219 5.65945826 1.72195826 8.5 4.5625 C9.93676306 7.43602611 9.65117343 9.92449042 9.67700195 13.13598633 C9.68357315 13.81099686 9.69014435 14.48600739 9.69691467 15.18147278 C9.71665263 17.41916004 9.72831158 19.65678015 9.73828125 21.89453125 C9.74235678 22.65873571 9.7464323 23.42294018 9.75063133 24.21030235 C9.77149468 28.25551458 9.78579495 32.30069286 9.79516602 36.34594727 C9.80622824 40.5224945 9.84062461 44.69850862 9.88033772 48.87486744 C9.90649503 52.08767176 9.91485705 55.30034892 9.91844749 58.51325035 C9.92331617 60.05262539 9.9349383 61.59199464 9.95348549 63.13126564 C9.97785868 65.28821547 9.97691619 67.44378444 9.9699707 69.60083008 C9.97877007 71.4404406 9.97877007 71.4404406 9.98774719 73.31721497 C9.40807922 77.17410602 8.20953281 78.81189184 5.5 81.5625 C2.40826248 83.10836876 -0.09429552 82.85609521 -3.5 82.5625 C-5.86497439 80.69541495 -7.16030715 79.24188569 -8.5 76.5625 C-8.61769727 74.34292733 -8.66985327 72.11978866 -8.69287109 69.8972168 C-8.70104858 69.2124527 -8.70922607 68.5276886 -8.71765137 67.82217407 C-8.74249948 65.5520312 -8.75902 63.28195085 -8.7734375 61.01171875 C-8.77876118 60.23648172 -8.78408485 59.4612447 -8.78956985 58.66251564 C-8.81629929 54.55895603 -8.83567454 50.45542682 -8.85009766 46.35180664 C-8.86674278 42.11460829 -8.91151891 37.87818816 -8.9624691 33.64128399 C-8.99613655 30.38215753 -9.00767444 27.12321589 -9.01332474 23.86393166 C-9.020039 22.30220405 -9.03526588 20.74048868 -9.05921555 19.17893028 C-9.09086174 16.99063216 -9.09090629 14.80443396 -9.08349609 12.6159668 C-9.09158295 11.37179489 -9.0996698 10.12762299 -9.10800171 8.8457489 C-8.11041989 3.45874196 -5.35737975 0.86100746 0 0 Z " fill="#EFEEEF" transform="translate(147.5,212.4375)"/>
<path d="M0 0 C4.45588141 0.79569311 5.69755855 2.11901044 8.5 5.625 C9.13491821 8.92602539 9.13491821 8.92602539 9.14697266 12.72265625 C9.16011505 13.76508987 9.16011505 13.76508987 9.17352295 14.82858276 C9.19544945 17.11553212 9.180991 19.40053256 9.1640625 21.6875 C9.16743265 23.28263722 9.17228692 24.87777194 9.17855835 26.47290039 C9.18592043 29.81193552 9.17524651 33.15030072 9.15185547 36.48925781 C9.12336698 40.763548 9.13977468 45.03626847 9.16971779 49.3105011 C9.18780939 52.60318776 9.18202444 55.89550391 9.16907883 59.1882019 C9.16574991 60.76382637 9.16981386 62.33948477 9.18147659 63.91506958 C9.19421745 66.12006354 9.17476957 68.322537 9.14697266 70.52734375 C9.14299469 71.78023193 9.13901672 73.03312012 9.13491821 74.32397461 C8.32626513 78.528271 6.83349644 80.01693966 3.5 82.625 C0 83.25 0 83.25 -3.5 82.625 C-6.83349644 80.01693966 -8.32626513 78.528271 -9.13491821 74.32397461 C-9.13889618 73.07108643 -9.14287415 71.81819824 -9.14697266 70.52734375 C-9.15573425 69.832388 -9.16449585 69.13743225 -9.17352295 68.42141724 C-9.19544945 66.13446788 -9.180991 63.84946744 -9.1640625 61.5625 C-9.16743265 59.96736278 -9.17228692 58.37222806 -9.17855835 56.77709961 C-9.18592043 53.43806448 -9.17524651 50.09969928 -9.15185547 46.76074219 C-9.12336698 42.486452 -9.13977468 38.21373153 -9.16971779 33.9394989 C-9.18780939 30.64681224 -9.18202444 27.35449609 -9.16907883 24.0617981 C-9.16574991 22.48617363 -9.16981386 20.91051523 -9.18147659 19.33493042 C-9.19421745 17.12993646 -9.17476957 14.927463 -9.14697266 12.72265625 C-9.14299469 11.46976807 -9.13901672 10.21687988 -9.13491821 8.92602539 C-8.09765784 3.53316885 -5.3515309 0.95563052 0 0 Z " fill="#F3F2F3" transform="translate(362.5,212.375)"/>
<path d="M0 0 C5.28 0 10.56 0 16 0 C16 15.18 16 30.36 16 46 C10.72 46 5.44 46 0 46 C0 30.82 0 15.64 0 0 Z " fill="#DEA733" transform="translate(327,230)"/>
<path d="M0 0 C4.95 0 9.9 0 15 0 C15 15.18 15 30.36 15 46 C10.05 46 5.1 46 0 46 C0 30.82 0 15.64 0 0 Z " fill="#E6AE31" transform="translate(168,230)"/>
</svg>
